<svg xmlns="http://www.w3.org/2000/svg" width="10.057" height="18.301" viewBox="0 0 10.057 18.301"><g transform="translate(-174.77 245.955)"><g transform="translate(174.77 -245.955)"><path d="M-203.712-231.269c.119.532.23,1.036.344,1.54q.508,2.249,1.016,4.5c.068.3-.054.518-.306.568-.235.047-.421-.09-.49-.383-.149-.624-.3-1.248-.427-1.875a.279.279,0,0,0-.327-.266q-3.3.008-6.6,0c-.235,0-.293.115-.334.3-.128.587-.261,1.172-.391,1.758-.079.357-.259.523-.518.468s-.373-.273-.292-.632q.61-2.711,1.227-5.42a1.5,1.5,0,0,1,.041-.178c.1-.272.057-.407-.281-.455a.854.854,0,0,1-.692-.7.86.86,0,0,1,.264-.92.45.45,0,0,0,.134-.558,23.907,23.907,0,0,1-.841-4.248,5.427,5.427,0,0,1,.2-2.444,3.833,3.833,0,0,1,2.586-2.366,6.564,6.564,0,0,1,5.106.3,3.614,3.614,0,0,1,2.09,3.088,12.3,12.3,0,0,1-.338,3.515c-.159.767-.371,1.522-.543,2.287a.408.408,0,0,0,.087.33.985.985,0,0,1,.31,1.079.92.92,0,0,1-.858.67A1.65,1.65,0,0,0-203.712-231.269Zm-.171,3.234a.346.346,0,0,0,.018-.093c-.221-1-.438-2.006-.675-3.005a.342.342,0,0,0-.269-.167q-2.4-.015-4.79,0a.361.361,0,0,0-.263.2c-.094.289-.148.591-.215.889-.16.712-.319,1.425-.485,2.169Zm-2.908-9.645h0c0,1.365,0,2.729.007,4.094,0,.105.081.291.145.3a3.128,3.128,0,0,0,.729.007c.056,0,.136-.115.148-.187.042-.251.059-.505.086-.758q.393-3.583.791-7.165c.023-.2-.041-.307-.234-.352-.434-.1-.864-.226-1.3-.315-.335-.069-.369-.028-.37.313Q-206.792-239.711-206.791-237.679Zm-.821,0c0-1.365,0-2.73,0-4.095,0-.24-.067-.347-.314-.292-.426.1-.852.193-1.278.286-.252.055-.332.188-.3.458.28,2.479.543,4.96.818,7.44.069.626.081.611.715.627.281.007.365-.077.362-.36C-207.62-234.973-207.613-236.328-207.612-237.682Zm-2.688-3.394-.147-.1a4.513,4.513,0,0,1-.256.377,3.036,3.036,0,0,0-.7,2,20.506,20.506,0,0,0,.938,5.333c.02.073.108.175.171.18.267.02.537.008.845.008Zm6.238-.061c-.032.147-.055.223-.064.3q-.38,3.49-.756,6.981c-.069.651-.168.573.555.6.285.01.392-.1.45-.359.2-.883.438-1.757.615-2.644a9.531,9.531,0,0,0,.232-3A2.8,2.8,0,0,0-204.062-241.137Z" transform="translate(212.23 242.955)" fill="#00A5AE"/></g></g></svg>