<svg xmlns="http://www.w3.org/2000/svg" width="16.979" height="17.09" viewBox="0 0 16.979 17.09"><g transform="translate(-1346.7 -712.994)"><g transform="translate(1346.7 712.994)"><g transform="translate(0 0)"><path d="M660.519,236.04a8.566,8.566,0,0,1,4.123,3.522,8.193,8.193,0,0,1,1.165,3.456.8.8,0,0,1-.431.835.721.721,0,0,1-.894-.069,1.4,1.4,0,0,1-.367-.712,6.684,6.684,0,0,0-4.816-5.636,6.79,6.79,0,0,0-8.724,5.557c-.012.079-.024.158-.041.236a.859.859,0,0,1-.944.729.823.823,0,0,1-.74-.966,12.592,12.592,0,0,1,.588-2.274,8.267,8.267,0,0,1,4.275-4.5l.4-.19a5.131,5.131,0,0,1-1.891-4.573,4.929,4.929,0,0,1,1.827-3.4,5.125,5.125,0,0,1,6.993.435A5.185,5.185,0,0,1,660.519,236.04ZM657.3,228.6a3.411,3.411,0,1,0,3.431,3.385A3.414,3.414,0,0,0,657.3,228.6Z" transform="translate(-648.833 -226.886)" fill="#00A5AE"/></g></g></g></svg>