<svg xmlns="http://www.w3.org/2000/svg" width="21.949" height="19.255" viewBox="0 0 21.949 19.255"><g transform="translate(-235.484 37.74)"><g transform="translate(235.484 -37.74)"><path d="M244.855-18.487H237.6a2.1,2.1,0,0,1-2.117-2.135q.006-5.395,0-10.79a2.3,2.3,0,0,1,.819-1.834,1.944,1.944,0,0,1,1.287-.48c.221,0,.443,0,.664,0,.072,0,.1-.023.11-.095.076-.642.166-1.282.23-1.925a2.208,2.208,0,0,1,1.771-1.965,2.668,2.668,0,0,1,.821,0c.73.086,1.462.167,2.192.249l2.075.236L247.36-37l2.1.239,2.437.276,2.129.244c.486.056.973.106,1.458.165a2.2,2.2,0,0,1,1.943,2.4c-.067.732-.161,1.462-.243,2.193q-.138,1.229-.278,2.458-.137,1.208-.276,2.416-.121,1.064-.239,2.129c-.065.571-.1,1.147-.2,1.712a2.065,2.065,0,0,1-1.611,1.749c-.109.029-.15.07-.143.186a2.011,2.011,0,0,1-.317,1.287,2.3,2.3,0,0,1-1.983,1.062c-2.425.01-4.851,0-7.276,0Zm-8.149-5.59c.061-.042.094-.063.125-.086q1.625-1.181,3.248-2.362a2.44,2.44,0,0,1,3.05.135q1.427,1.256,2.853,2.514a1.255,1.255,0,0,0,1.51.152q2.81-1.633,5.618-3.268a.187.187,0,0,0,.105-.187q0-2.079,0-4.158a1.124,1.124,0,0,0-1.174-1.171H237.956c-.125,0-.25,0-.375,0a.757.757,0,0,0-.538.23,1.15,1.15,0,0,0-.338.852q0,3.6,0,7.19Zm16.5-1.539-.116.065-4.958,2.868a2.525,2.525,0,0,1-2.995-.3q-1.423-1.253-2.847-2.5a1.169,1.169,0,0,0-1.508-.06q-1.993,1.466-3.987,2.93a.2.2,0,0,0-.09.178q0,.916,0,1.832a.874.874,0,0,0,.892.9q7.26,0,14.52,0a1.359,1.359,0,0,0,.389-.062.93.93,0,0,0,.707-.889q0-2.411,0-4.822C253.212-25.521,253.208-25.558,253.2-25.616Zm1.23,3.342a.71.71,0,0,0,.073-.026.843.843,0,0,0,.456-.7q.135-1.241.279-2.48c.1-.876.206-1.752.307-2.628.092-.791.18-1.582.272-2.373q.185-1.591.372-3.181a1.119,1.119,0,0,0-.043-.56,1.027,1.027,0,0,0-.934-.655c-1.164-.126-2.327-.263-3.491-.4-1.064-.123-2.128-.25-3.192-.373-1.167-.135-2.334-.266-3.5-.4s-2.334-.272-3.5-.407a6.962,6.962,0,0,0-.757-.07.967.967,0,0,0-.977.871c-.073.6-.139,1.206-.207,1.809a1.159,1.159,0,0,0,0,.12h.15q6.162,0,12.324,0a2.341,2.341,0,0,1,2.37,2.372q0,4.469,0,8.937Z" transform="translate(-235.484 37.74)" fill="#fff"/><path d="M281.03-.085a2.3,2.3,0,0,1-2.3-2.307,2.3,2.3,0,0,1,2.318-2.3,2.31,2.31,0,0,1,2.289,2.32A2.307,2.307,0,0,1,281.03-.085ZM279.954-2.39a1.079,1.079,0,0,0,1.079,1.084,1.085,1.085,0,0,0,1.086-1.079,1.09,1.09,0,0,0-1.081-1.086A1.084,1.084,0,0,0,279.954-2.39Z" transform="translate(-269.919 11.427)" fill="#fff"/></g></g></svg>