<svg xmlns="http://www.w3.org/2000/svg" width="11.629" height="11.146" viewBox="0 0 11.629 11.146"><g transform="translate(-197.678 65.844)"><g transform="translate(197.678 -65.844)"><path d="M209.307-61.323a1.035,1.035,0,0,1-.391.512c-.764.667-1.525,1.336-2.29,2a.136.136,0,0,0-.043.157q.357,1.566.714,3.132a.625.625,0,0,1-.526.817.656.656,0,0,1-.44-.116l-2.2-1.316c-.185-.111-.372-.217-.554-.333a.139.139,0,0,0-.172,0q-1.374.826-2.751,1.647a.661.661,0,0,1-.506.1.611.611,0,0,1-.473-.716c.206-.931.419-1.861.629-2.792.032-.143.062-.288.1-.429a.148.148,0,0,0-.061-.172q-1.223-1.067-2.442-2.138a.6.6,0,0,1-.193-.666.619.619,0,0,1,.587-.439c.625-.056,1.25-.109,1.875-.165.448-.04.9-.085,1.343-.125a.128.128,0,0,0,.12-.094q.622-1.463,1.247-2.925a.7.7,0,0,1,.373-.419.619.619,0,0,1,.821.354c.291.676.579,1.353.868,2.03.136.319.275.638.407.959a.135.135,0,0,0,.13.1c.38.032.76.068,1.14.1l1.389.127c.248.023.5.041.745.071a.594.594,0,0,1,.532.456c0,.01.013.017.02.025Z" transform="translate(-197.678 65.844)" fill="#fff"/></g></g></svg>