<svg xmlns="http://www.w3.org/2000/svg" width="13" height="18.468" viewBox="0 0 13 18.468"><g transform="translate(-146.719 52.184)"><g transform="translate(146.719 -52.184)"><path d="M153.265-33.743a.063.063,0,0,1-.1,0c-.557-.865-1.1-1.715-1.65-2.566-1.3-2.017-2.6-4.03-3.88-6.054a5.859,5.859,0,0,1-.884-2.683,6.383,6.383,0,0,1,2.331-5.659,5.956,5.956,0,0,1,3.207-1.418,6.439,6.439,0,0,1,4.515,1,6.47,6.47,0,0,1,2.571,3.328,6.432,6.432,0,0,1,.305,2.847,6.721,6.721,0,0,1-1.086,2.932q-2.636,4.084-5.259,8.176C153.31-33.808,153.288-33.777,153.265-33.743Zm-.1-2.019a.062.062,0,0,0,.1,0h0c1.533-2.387,3.08-4.765,4.593-7.165a5.185,5.185,0,0,0,.579-4.184,5.2,5.2,0,0,0-1.93-2.872,5.168,5.168,0,0,0-5.04-.824,5.235,5.235,0,0,0-3.626,4.478,4.98,4.98,0,0,0,.7,3.365c.634,1.038,1.305,2.053,1.963,3.077C151.39-38.517,152.272-37.148,153.163-35.763Z" transform="translate(-146.719 52.184)" fill="#00A5AE"/><path d="M236.248,40.386a3.255,3.255,0,1,1,6.511-.01,3.255,3.255,0,1,1-6.511.01Zm5.41,0a2.161,2.161,0,1,0-2.163,2.153A2.161,2.161,0,0,0,241.657,40.383Z" transform="translate(-233.002 -33.887)" fill="#00A5AE"/></g></g></svg>